<svg width="23" height="27" viewBox="0 0 23 27" fill="none" xmlns="http://www.w3.org/2000/svg">
<path d="M2.38659 11.5816C2.30057 11.6691 2.19793 11.7386 2.08468 11.786C1.97144 11.8335 1.84985 11.8579 1.72703 11.8579C1.60421 11.8579 1.48262 11.8335 1.36937 11.786C1.25613 11.7386 1.15349 11.6691 1.06747 11.5816C0.892382 11.4039 0.794271 11.1646 0.794271 10.9154C0.794271 10.6662 0.892382 10.427 1.06747 10.2492L9.22706 2.02523C11.0671 0.599662 12.9179 -0.0847711 14.7606 0.00837658C17.0822 0.127174 18.8898 1.01005 20.424 2.45856C21.988 3.93543 23 6.04272 23 8.59686C23 10.557 22.4291 12.2823 21.2236 13.8131L9.71953 25.6388C8.556 26.5906 7.26259 27.0509 5.87718 26.9955C4.11835 26.9226 2.81006 26.3557 1.83729 25.3958C0.698118 24.274 0 22.8957 0 21.0422C0 19.568 0.510059 18.2073 1.56265 16.9302L11.6881 6.61511C12.4998 5.75113 13.294 5.23814 14.1058 5.11395C14.6476 5.0288 15.202 5.07715 15.7208 5.2548C16.2396 5.43245 16.707 5.734 17.0822 6.13317C17.802 6.8932 18.1105 7.84088 18.0022 8.9195C17.9278 9.65523 17.6261 10.3329 17.0714 10.9822L7.76318 20.4968C7.67772 20.5846 7.57559 20.6545 7.46276 20.7026C7.34993 20.7506 7.22865 20.7757 7.106 20.7764C6.98334 20.7772 6.86176 20.7536 6.74834 20.7069C6.63493 20.6603 6.53195 20.5916 6.44541 20.5049C6.26924 20.3282 6.16966 20.0896 6.16815 19.8404C6.16663 19.5911 6.26328 19.3513 6.43729 19.1725L15.7009 9.70653C15.9715 9.38929 16.1135 9.06935 16.1474 8.72916C16.2015 8.18917 16.0716 7.79093 15.7347 7.43589C15.5646 7.25405 15.352 7.117 15.116 7.03692C14.8799 6.95685 14.6277 6.93623 14.3818 6.9769C14.053 7.02685 13.593 7.32519 13.0261 7.92728L2.94265 18.1965C2.21612 19.0807 1.86435 20.0189 1.86435 21.0435C1.86435 22.3314 2.33112 23.2534 3.13882 24.0486C3.78147 24.6831 4.65412 25.061 5.95294 25.115C6.87294 25.1515 7.72529 24.8477 8.46671 24.2484L19.8274 12.5712C20.7 11.4547 21.1356 10.1412 21.1356 8.59821C21.1356 6.59756 20.355 4.9749 19.1495 3.83553C17.9184 2.67186 16.5113 1.98608 14.6672 1.89158C13.3035 1.82138 11.8734 2.35057 10.4501 3.43864L2.38659 11.5816Z" fill="white"/>
</svg>
