<svg width="15" height="11" viewBox="0 0 15 11" fill="none" xmlns="http://www.w3.org/2000/svg">
<path d="M0.5 5.5L0.0357612 5.31431C-0.0119204 5.43351 -0.0119204 5.56649 0.0357612 5.68569L0.5 5.5ZM14.5 5.5L14.9642 5.6857C15.0119 5.56649 15.0119 5.43351 14.9642 5.3143L14.5 5.5ZM7.49998 10C5.18597 10 3.56111 8.84827 2.49664 7.66552C1.96405 7.07375 1.57811 6.48029 1.32563 6.03474C1.19968 5.81247 1.10772 5.62838 1.04797 5.50164C1.01811 5.4383 0.996349 5.3894 0.98246 5.35735C0.975517 5.34133 0.970545 5.32953 0.967517 5.32225C0.966003 5.31861 0.964975 5.3161 0.96443 5.31477C0.964157 5.3141 0.964005 5.31372 0.963973 5.31364C0.963958 5.3136 0.963972 5.31364 0.964016 5.31375C0.964038 5.31381 0.964094 5.31394 0.964105 5.31397C0.964168 5.31413 0.964239 5.31431 0.5 5.5C0.0357612 5.68569 0.0358471 5.68591 0.0359408 5.68614C0.0359823 5.68625 0.036084 5.6865 0.0361671 5.68671C0.0363335 5.68712 0.0365311 5.68761 0.0367599 5.68818C0.0372175 5.68931 0.0377999 5.69075 0.0385076 5.69248C0.0399231 5.69595 0.0418401 5.70062 0.0442628 5.70644C0.0491078 5.71808 0.0559773 5.73436 0.0649031 5.75495C0.0827516 5.79614 0.108844 5.85467 0.143439 5.92805C0.212592 6.07474 0.315944 6.28128 0.455611 6.52776C0.734381 7.01971 1.16093 7.67625 1.75334 8.33448C2.93886 9.65173 4.814 11 7.49998 11V10ZM0.5 5.5C0.964239 5.68569 0.964168 5.68587 0.964105 5.68603C0.964094 5.68606 0.964038 5.68619 0.964016 5.68625C0.963972 5.68636 0.963958 5.6864 0.963973 5.68636C0.964005 5.68628 0.964157 5.6859 0.96443 5.68523C0.964975 5.6839 0.966003 5.68139 0.967517 5.67775C0.970545 5.67047 0.975517 5.65867 0.98246 5.64265C0.996349 5.6106 1.01811 5.5617 1.04797 5.49836C1.10772 5.37162 1.19968 5.18753 1.32563 4.96526C1.57811 4.51971 1.96405 3.92625 2.49664 3.33448C3.56111 2.15173 5.18597 1 7.49998 1V0C4.814 0 2.93886 1.34827 1.75334 2.66552C1.16093 3.32375 0.734381 3.98029 0.455611 4.47224C0.315944 4.71872 0.212592 4.92526 0.143439 5.07195C0.108844 5.14533 0.0827516 5.20386 0.0649031 5.24505C0.0559773 5.26564 0.0491078 5.28192 0.0442628 5.29356C0.0418401 5.29938 0.0399231 5.30405 0.0385076 5.30752C0.0377999 5.30925 0.0372175 5.31069 0.0367599 5.31182C0.0365311 5.31239 0.0363335 5.31288 0.0361671 5.31329C0.036084 5.3135 0.0359823 5.31375 0.0359408 5.31386C0.0358471 5.31409 0.0357612 5.31431 0.5 5.5ZM7.49998 1C9.814 1 11.4389 2.15173 12.5033 3.33448C13.0359 3.92625 13.4219 4.51971 13.6744 4.96526C13.8003 5.18754 13.8923 5.37162 13.952 5.49837C13.9819 5.5617 14.0037 5.6106 14.0175 5.64265C14.0245 5.65868 14.0295 5.67048 14.0325 5.67775C14.034 5.68139 14.035 5.6839 14.0356 5.68524C14.0358 5.6859 14.036 5.68628 14.036 5.68636C14.036 5.6864 14.036 5.68636 14.036 5.68625C14.036 5.6862 14.0359 5.68606 14.0359 5.68603C14.0358 5.68587 14.0358 5.6857 14.5 5.5C14.9642 5.3143 14.9642 5.31409 14.9641 5.31385C14.964 5.31375 14.9639 5.3135 14.9638 5.31329C14.9637 5.31288 14.9635 5.31239 14.9632 5.31182C14.9628 5.31069 14.9622 5.30925 14.9615 5.30752C14.9601 5.30405 14.9582 5.29938 14.9557 5.29356C14.9509 5.28192 14.944 5.26564 14.9351 5.24504C14.9172 5.20385 14.8912 5.14533 14.8566 5.07195C14.7874 4.92526 14.6841 4.71871 14.5444 4.47224C14.2656 3.98029 13.8391 3.32375 13.2466 2.66552C12.0611 1.34827 10.186 0 7.49998 0V1ZM14.5 5.5C14.0358 5.3143 14.0358 5.31413 14.0359 5.31397C14.0359 5.31394 14.036 5.3138 14.036 5.31375C14.036 5.31364 14.036 5.3136 14.036 5.31364C14.036 5.31372 14.0358 5.3141 14.0356 5.31476C14.035 5.3161 14.034 5.31861 14.0325 5.32225C14.0295 5.32952 14.0245 5.34132 14.0175 5.35735C14.0037 5.3894 13.9819 5.4383 13.952 5.50163C13.8923 5.62838 13.8003 5.81246 13.6744 6.03474C13.4219 6.48029 13.0359 7.07375 12.5033 7.66552C11.4389 8.84827 9.814 10 7.49998 10V11C10.186 11 12.0611 9.65173 13.2466 8.33448C13.8391 7.67625 14.2656 7.01971 14.5444 6.52776C14.6841 6.28129 14.7874 6.07474 14.8566 5.92805C14.8912 5.85467 14.9172 5.79615 14.9351 5.75496C14.944 5.73436 14.9509 5.71808 14.9557 5.70644C14.9582 5.70062 14.9601 5.69595 14.9615 5.69248C14.9622 5.69075 14.9628 5.68931 14.9632 5.68818C14.9635 5.68761 14.9637 5.68712 14.9638 5.68671C14.9639 5.6865 14.964 5.68625 14.9641 5.68615C14.9642 5.68591 14.9642 5.6857 14.5 5.5ZM7.5 7C6.67157 7 6 6.32843 6 5.5H5C5 6.88071 6.11929 8 7.5 8V7ZM9 5.5C9 6.32843 8.32843 7 7.5 7V8C8.88071 8 10 6.88071 10 5.5H9ZM7.5 4C8.32843 4 9 4.67157 9 5.5H10C10 4.11929 8.88071 3 7.5 3V4ZM7.5 3C6.11929 3 5 4.11929 5 5.5H6C6 4.67157 6.67157 4 7.5 4V3Z" fill="#8D8D8D"/>
</svg>
