<svg width="15" height="8" viewBox="0 0 15 8" fill="none" xmlns="http://www.w3.org/2000/svg">
<path fill-rule="evenodd" clip-rule="evenodd" d="M2.49665 2.66537C3.56112 3.84812 5.18599 4.99985 7.5 4.99985C9.81401 4.99985 11.4389 3.84812 12.5034 2.66536C13.0359 2.0736 13.4219 1.48014 13.6744 1.03459C13.8003 0.812313 13.8923 0.62823 13.952 0.501481C13.9819 0.438146 14.0037 0.389248 14.0176 0.357195C14.0245 0.341172 14.0295 0.329371 14.0325 0.322094L14.0356 0.314612L14.0359 0.313817C14.0358 0.313975 14.0358 0.314151 14.5 0.499848C14.9642 0.685544 14.9642 0.685759 14.9641 0.685993L14.9638 0.686557L14.9633 0.688028L14.9615 0.692331L14.9557 0.706288C14.9509 0.717932 14.944 0.734207 14.9351 0.754805C14.9173 0.795994 14.8912 0.854518 14.8566 0.927902C14.7874 1.07459 14.6841 1.28113 14.5444 1.52761C14.2656 2.01956 13.8391 2.6761 13.2467 3.33433C13.0638 3.53753 12.8645 3.74146 12.6483 3.94107L14.3536 5.64629L13.6465 6.3534L11.8716 4.57856C10.8638 5.30882 9.58254 5.88293 8 5.98401L8.00001 7.99985L7.00001 7.99985L7 5.98401C5.41747 5.88293 4.13622 5.30882 3.12839 4.57857L1.35356 6.3534L0.646458 5.64629L2.35167 3.94108C2.13553 3.74147 1.93624 3.53753 1.75336 3.33433C1.16095 2.67609 0.734393 2.01955 0.455623 1.5276C0.315956 1.28113 0.212603 1.07459 0.143451 0.9279C0.108856 0.854516 0.0827632 0.795992 0.0649147 0.754803C0.0559888 0.734204 0.0491194 0.717929 0.0442744 0.706286L0.0385192 0.692329L0.0367715 0.688025L0.0361787 0.686554L0.0359524 0.68599C0.0358587 0.685757 0.0357727 0.685542 0.500012 0.499848C0.96425 0.314154 0.96418 0.313977 0.964117 0.313819L0.964028 0.313598L0.964441 0.314614L0.967528 0.322096C0.970557 0.329374 0.975528 0.341175 0.982471 0.357198C0.996361 0.389251 1.01812 0.438148 1.04798 0.501483C1.10773 0.628232 1.19969 0.812315 1.32565 1.03459C1.57812 1.48014 1.96407 2.0736 2.49665 2.66537ZM0.963985 0.313492C0.963969 0.313453 0.963983 0.313488 0.964028 0.313598L0.963985 0.313492Z" fill="#8D8D8D"/>
</svg>
