<svg width="14" height="15" viewBox="0 0 14 15" fill="none" xmlns="http://www.w3.org/2000/svg">
<path d="M7.21467 5.9337V8.70968H10.9897C10.4346 10.2087 8.99116 11.2081 7.3257 11.2081C5.16061 11.2081 3.43964 9.48696 3.43964 7.32169C3.43964 5.15642 5.16061 3.43531 7.3257 3.43531C8.15843 3.43531 8.93565 3.71291 9.60183 4.15707L9.82389 4.32363L11.4893 2.15836L11.2673 1.9918C10.1015 1.159 8.7691 0.714844 7.3257 0.714844C3.6617 0.714844 0.663879 3.71291 0.663879 7.37721C0.663879 11.0415 3.6617 14.0396 7.3257 14.0396C10.9897 14.0396 13.9875 11.0415 13.9875 7.37721V5.98922H7.21467V5.9337Z" fill="white"/>
</svg>
