<svg width="24" height="24" viewBox="0 0 24 24" fill="none" xmlns="http://www.w3.org/2000/svg">
<path d="M20.3184 10C20.3184 17 11.6106 23 11.6106 23C11.6106 23 2.90283 17 2.90283 10C2.90283 7.61305 3.82026 5.32387 5.45329 3.63604C7.08631 1.94821 9.30117 1 11.6106 1C13.9201 1 16.1349 1.94821 17.768 3.63604C19.401 5.32387 20.3184 7.61305 20.3184 10Z" stroke="#212529" stroke-width="2" stroke-linecap="round" stroke-linejoin="round"/>
<path d="M11.6106 13C13.2137 13 14.5132 11.6569 14.5132 10C14.5132 8.34315 13.2137 7 11.6106 7C10.0075 7 8.70801 8.34315 8.70801 10C8.70801 11.6569 10.0075 13 11.6106 13Z" stroke="#212529" stroke-width="2" stroke-linecap="round" stroke-linejoin="round"/>
</svg>
