<svg width="7" height="7" viewBox="0 0 7 7" fill="none" xmlns="http://www.w3.org/2000/svg">
<path d="M1.92 6.76L1.04 6.1C0.946667 6.03333 0.893333 5.94 0.88 5.82C0.866667 5.68667 0.886667 5.58 0.94 5.5C0.94 5.48667 0.98 5.44 1.06 5.36L2.5 4.04L0.54 3.82C0.486667 3.80667 0.446667 3.8 0.42 3.8C0.406667 3.78667 0.393333 3.78 0.38 3.78C0.286667 3.75333 0.206667 3.68667 0.14 3.58C0.0866667 3.46 0.0733334 3.34 0.1 3.22L0.46 2.18C0.486667 2.07333 0.56 1.99333 0.68 1.94C0.8 1.88667 0.906667 1.87333 1 1.9C1.01333 1.9 1.06667 1.92 1.16 1.96L2.88 2.94L2.48 0.999999C2.46667 0.946666 2.46 0.913332 2.46 0.899999C2.46 0.873333 2.46 0.853333 2.46 0.84C2.46 0.733333 2.5 0.633333 2.58 0.539999C2.67333 0.446666 2.78 0.4 2.9 0.4H4C4.12 0.4 4.22 0.446666 4.3 0.539999C4.39333 0.633333 4.44 0.733333 4.44 0.84C4.44 0.853333 4.44 0.873333 4.44 0.899999C4.44 0.913332 4.43333 0.946666 4.42 0.999999L4.02 2.94L5.76 1.96C5.85333 1.92 5.90667 1.9 5.92 1.9C6.02667 1.87333 6.13333 1.88667 6.24 1.94C6.36 1.99333 6.43333 2.07333 6.46 2.18L6.82 3.22C6.84667 3.34 6.82667 3.46 6.76 3.58C6.70667 3.68667 6.62667 3.75333 6.52 3.78C6.50667 3.78 6.48667 3.78667 6.46 3.8C6.44667 3.8 6.42 3.80667 6.38 3.82L4.4 4.04L5.86 5.36C5.94 5.44 5.98 5.48667 5.98 5.5C6.04667 5.58 6.07333 5.68667 6.06 5.82C6.04667 5.94 5.98667 6.03333 5.88 6.1L5 6.76C4.89333 6.81333 4.78 6.83333 4.66 6.82C4.54 6.80667 4.44667 6.75333 4.38 6.66C4.38 6.64667 4.37333 6.63333 4.36 6.62C4.34667 6.60667 4.32667 6.57333 4.3 6.52L3.46 4.7L2.62 6.52C2.60667 6.57333 2.58667 6.60667 2.56 6.62C2.54667 6.63333 2.54 6.64667 2.54 6.66C2.48667 6.75333 2.39333 6.80667 2.26 6.82C2.14 6.83333 2.02667 6.81333 1.92 6.76Z" fill="#E77373"/>
</svg>
