<svg width="28" height="29" viewBox="0 0 28 29" fill="none" xmlns="http://www.w3.org/2000/svg">
<path d="M8.31086 0.5H23.1861C24.4624 0.5 25.6865 1.00704 26.5891 1.90957C27.4916 2.8121 27.9986 4.03619 27.9986 5.31257V20.1878C27.9986 21.4641 27.4916 22.6882 26.5891 23.5908C25.6865 24.4933 24.4624 25.0003 23.1861 25.0003H15.9602L14.2102 23.2503H23.1861C23.9983 23.2503 24.7773 22.9277 25.3516 22.3533C25.9259 21.779 26.2486 21 26.2486 20.1878V5.31257C26.2486 4.50033 25.9259 3.72136 25.3516 3.14702C24.7773 2.57268 23.9983 2.25002 23.1861 2.25002H8.31086C7.49863 2.25002 6.71966 2.57268 6.14532 3.14702C5.57098 3.72136 5.24832 4.50033 5.24832 5.31257V11.0474C4.65154 11.1144 4.06438 11.2494 3.4983 11.4499V5.31257C3.4983 4.03619 4.00533 2.8121 4.90786 1.90957C5.8104 1.00704 7.03449 0.5 8.31086 0.5ZM14.8735 19.7503C14.6414 19.7503 14.4188 19.6581 14.2547 19.494C14.0906 19.3299 13.9984 19.1073 13.9984 18.8753C13.9984 18.6432 14.0906 18.4206 14.2547 18.2565C14.4188 18.0924 14.6414 18.0002 14.8735 18.0002H21.8735C22.1056 18.0002 22.3282 18.0924 22.4923 18.2565C22.6564 18.4206 22.7486 18.6432 22.7486 18.8753C22.7486 19.1073 22.6564 19.3299 22.4923 19.494C22.3282 19.6581 22.1056 19.7503 21.8735 19.7503H14.8735ZM11.3734 7.9376C11.3734 8.2857 11.2351 8.61955 10.989 8.86569C10.7428 9.11184 10.409 9.25012 10.0609 9.25012C9.71278 9.25012 9.37894 9.11184 9.1328 8.86569C8.88665 8.61955 8.74837 8.2857 8.74837 7.9376C8.74837 7.5895 8.88665 7.25566 9.1328 7.00951C9.37894 6.76337 9.71278 6.62508 10.0609 6.62508C10.409 6.62508 10.7428 6.76337 10.989 7.00951C11.2351 7.25566 11.3734 7.5895 11.3734 7.9376ZM14.8735 7.5001C14.6414 7.5001 14.4188 7.59229 14.2547 7.75638C14.0906 7.92048 13.9984 8.14304 13.9984 8.37511C13.9984 8.60718 14.0906 8.82974 14.2547 8.99384C14.4188 9.15793 14.6414 9.25012 14.8735 9.25012H21.8735C22.1056 9.25012 22.3282 9.15793 22.4923 8.99384C22.6564 8.82974 22.7486 8.60718 22.7486 8.37511C22.7486 8.14304 22.6564 7.92048 22.4923 7.75638C22.3282 7.59229 22.1056 7.5001 21.8735 7.5001H14.8735ZM14.8735 12.7502C14.6414 12.7502 14.4188 12.8424 14.2547 13.0065C14.0906 13.1706 13.9984 13.3931 13.9984 13.6252C13.9984 13.8572 14.0906 14.0798 14.2547 14.2439C14.4188 14.408 14.6414 14.5002 14.8735 14.5002H21.8735C22.1056 14.5002 22.3282 14.408 22.4923 14.2439C22.6564 14.0798 22.7486 13.8572 22.7486 13.6252C22.7486 13.3931 22.6564 13.1706 22.4923 13.0065C22.3282 12.8424 22.1056 12.7502 21.8735 12.7502H14.8735ZM6.12333 25.0003C7.49885 25.0003 8.76937 24.5453 9.79138 23.7806L14.2539 28.2431C14.3352 28.3245 14.4317 28.389 14.5378 28.4331C14.644 28.4772 14.7579 28.4999 14.8728 28.5C14.9878 28.5001 15.1017 28.4775 15.2079 28.4336C15.3142 28.3897 15.4107 28.3252 15.4921 28.244C15.5734 28.1628 15.638 28.0663 15.6821 27.9601C15.7261 27.8539 15.7489 27.7401 15.749 27.6251C15.749 27.5101 15.7265 27.3963 15.6825 27.29C15.6386 27.1838 15.5742 27.0872 15.493 27.0059L11.0304 22.5433C11.8564 21.4386 12.2854 20.0875 12.2479 18.7087C12.2104 17.3298 11.7086 16.004 10.8237 14.9459C9.93884 13.8878 8.72273 13.1594 7.37228 12.8785C6.02183 12.5976 4.61612 12.7808 3.38274 13.3984C2.14937 14.0159 1.16056 15.0317 0.576402 16.2813C-0.00775181 17.5308 -0.153042 18.941 0.164057 20.2834C0.481156 21.6258 1.24208 22.8218 2.32362 23.6779C3.40515 24.534 4.74399 24.9999 6.12333 25.0003ZM6.12333 23.2503C4.96299 23.2503 3.85018 22.7894 3.0297 21.9689C2.20921 21.1484 1.74827 20.0356 1.74827 18.8753C1.74827 17.7149 2.20921 16.6021 3.0297 15.7816C3.85018 14.9611 4.96299 14.5002 6.12333 14.5002C7.28367 14.5002 8.39648 14.9611 9.21697 15.7816C10.0374 16.6021 10.4984 17.7149 10.4984 18.8753C10.4984 20.0356 10.0374 21.1484 9.21697 21.9689C8.39648 22.7894 7.28367 23.2503 6.12333 23.2503Z" fill="#F5F5F5"/>
</svg>
