<svg width="24" height="24" viewBox="0 0 24 24" fill="none" xmlns="http://www.w3.org/2000/svg">
<g clip-path="url(#clip0_321_1592)">
<path d="M7.5 5.25C7.5 5.05109 7.57902 4.86032 7.71967 4.71967C7.86032 4.57902 8.05109 4.5 8.25 4.5H15.75C15.9489 4.5 16.1397 4.57902 16.2803 4.71967C16.421 4.86032 16.5 5.05109 16.5 5.25C16.5 5.44891 16.421 5.63968 16.2803 5.78033C16.1397 5.92098 15.9489 6 15.75 6H8.25C8.05109 6 7.86032 5.92098 7.71967 5.78033C7.57902 5.63968 7.5 5.44891 7.5 5.25ZM9.75 7.5C9.55109 7.5 9.36032 7.57902 9.21967 7.71967C9.07902 7.86032 9 8.05109 9 8.25C9 8.44891 9.07902 8.63968 9.21967 8.78033C9.36032 8.92098 9.55109 9 9.75 9H14.25C14.4489 9 14.6397 8.92098 14.7803 8.78033C14.921 8.63968 15 8.44891 15 8.25C15 8.05109 14.921 7.86032 14.7803 7.71967C14.6397 7.57902 14.4489 7.5 14.25 7.5H9.75Z" fill="black"/>
<path fill-rule="evenodd" clip-rule="evenodd" d="M3 2.25C3 1.65326 3.23705 1.08097 3.65901 0.65901C4.08097 0.237053 4.65326 0 5.25 0L18.75 0C19.3467 0 19.919 0.237053 20.341 0.65901C20.7629 1.08097 21 1.65326 21 2.25V17.25C21 18.069 20.562 18.78 19.908 19.185L19.6965 19.8195C19.4403 20.5887 19.4403 21.4203 19.6965 22.1895L19.8015 22.503H20.2515C20.4504 22.503 20.6412 22.582 20.7818 22.7227C20.9225 22.8633 21.0015 23.0541 21.0015 23.253C21.0015 23.4519 20.9225 23.6427 20.7818 23.7833C20.6412 23.924 20.4504 24.003 20.2515 24.003H6C4.35 24.003 3 22.6605 3 21.003V2.253V2.25ZM18.75 1.5H5.25C5.05109 1.5 4.86032 1.57902 4.71967 1.71967C4.57902 1.86032 4.5 2.05109 4.5 2.25V18.45C4.941 18.195 5.454 18.048 6 18.048H18.75C18.9489 18.048 19.1397 17.969 19.2803 17.8283C19.421 17.6877 19.5 17.4969 19.5 17.298V2.298C19.5 2.09909 19.421 1.90832 19.2803 1.76767C19.1397 1.62702 18.9489 1.548 18.75 1.548V1.5ZM18.222 19.5H5.997C5.59918 19.5 5.21764 19.658 4.93634 19.9393C4.65504 20.2206 4.497 20.6022 4.497 21C4.497 21.3978 4.65504 21.7794 4.93634 22.0607C5.21764 22.342 5.59918 22.5 5.997 22.5H18.222C17.9302 21.5213 17.9302 20.4787 18.222 19.5Z" fill="black"/>
</g>
<defs>
<clipPath id="clip0_321_1592">
<rect width="24" height="24" fill="white"/>
</clipPath>
</defs>
</svg>
