<svg width="28" height="23" viewBox="0 0 28 23" fill="none" xmlns="http://www.w3.org/2000/svg">
<path fill-rule="evenodd" clip-rule="evenodd" d="M5.94995 0.0602503C4.8219 0.234372 3.78223 0.644878 2.88308 1.27118C2.37103 1.62783 1.53362 2.46058 1.19825 2.94668C0.360616 4.16066 -0.00500381 5.36131 5.16802e-05 6.88182C0.0063259 8.79052 0.733774 10.4704 2.12047 11.7785C3.26517 12.8583 4.53017 13.445 6.16666 13.6552C7.31092 13.8021 8.45662 13.6792 9.51588 13.2959C9.90474 13.1552 10.6005 12.7974 10.9516 12.5577L11.2137 12.3787L12.2282 13.3722C13.1148 14.2404 13.2393 14.3792 13.2159 14.473C13.151 14.7322 13.1882 15.1516 13.2934 15.3465C13.3561 15.4626 13.9294 16.0658 14.7293 16.8572C15.4617 17.5817 17.104 19.2063 18.3789 20.4673C19.679 21.7534 20.7691 22.7962 20.8615 22.8422C21.4678 23.1443 22.156 23.0063 22.6554 22.4826C22.9546 22.1688 23.095 21.8398 23.0948 21.453C23.0944 20.8643 23.2928 21.0878 19.2077 17.0751C17.0612 14.9666 15.4438 13.412 15.3387 13.3562C15.1945 13.2797 15.0729 13.2589 14.7342 13.2529L14.3102 13.2452L13.3283 12.2827L12.3465 11.3202L12.6398 10.9387C13.5213 9.79212 13.9747 8.56339 14.0386 7.14752C14.1048 5.68205 13.7116 4.27982 12.9031 3.09888C11.5367 1.10272 9.40506 -0.0152967 6.99495 0.000158126C6.61881 0.00254942 6.14856 0.0296063 5.94995 0.0602503ZM24.4213 0.575088C24.3274 0.597008 24.1954 0.643461 24.128 0.678312C23.9269 0.782112 21.3509 3.34257 21.2618 3.52714C20.9616 4.14861 21.6591 4.83527 22.281 4.53042C22.3604 4.49145 22.7453 4.14795 23.1364 3.76707L23.8473 3.07448V8.05294C23.8473 12.9977 23.8479 13.0326 23.9408 13.2208C24.2208 13.7884 25.1037 13.7334 25.3341 13.134C25.3668 13.0487 25.382 11.4377 25.382 8.04417V3.07904L26.1395 3.81419C26.7728 4.4287 26.9251 4.55447 27.0674 4.58069C27.579 4.67483 28 4.34616 28 3.85271C28 3.75609 27.9785 3.62093 27.9522 3.55238C27.8919 3.39496 25.1844 0.726979 24.9997 0.643018C24.799 0.55175 24.6141 0.530052 24.4213 0.575088ZM8.0636 1.61202C8.47381 1.68217 9.10868 1.88689 9.47074 2.06575C9.87595 2.26591 10.4995 2.71237 10.8473 3.05132C11.9247 4.10127 12.4825 5.40617 12.4844 6.88182C12.4864 8.30818 11.9581 9.53704 10.894 10.5809C9.82503 11.6296 8.49796 12.1729 7.00389 12.1735C4.65855 12.1744 2.67224 10.8204 1.8412 8.65435C1.42836 7.57835 1.43134 6.12971 1.84874 4.98942C2.45309 3.33823 3.83929 2.11924 5.62135 1.67181C6.32022 1.49636 7.254 1.47351 8.0636 1.61202ZM15.7409 3.26791C15.2108 3.58502 15.209 4.3176 15.7376 4.62147L15.9335 4.73408H17.7407C18.7346 4.73408 19.6136 4.7212 19.694 4.70539C19.7744 4.68962 19.917 4.60495 20.0109 4.51718C20.3949 4.15853 20.3334 3.58546 19.8786 3.28487L19.7263 3.18417L17.8034 3.18435C15.9996 3.18448 15.8717 3.18966 15.7409 3.26791ZM15.7878 6.83293C15.3651 7.01502 15.2032 7.59323 15.4681 7.97482C15.6299 8.20802 15.7897 8.2945 16.1195 8.32745C16.2859 8.3441 17.6915 8.35437 19.2432 8.3503C21.7727 8.3437 22.0783 8.33537 22.1997 8.26975C22.7626 7.96565 22.8127 7.26009 22.298 6.88589C22.1719 6.79423 22.1378 6.79317 19.048 6.78342C16.5211 6.7755 15.8992 6.78493 15.7878 6.83293ZM15.7878 10.4204C15.4948 10.5456 15.2848 10.9384 15.3451 11.2488C15.3897 11.4787 15.4807 11.6258 15.6624 11.7617L15.8281 11.8858L18.9011 11.8992C20.9768 11.9081 22.0276 11.8972 22.1391 11.8654C22.4614 11.7735 22.7138 11.3434 22.6478 10.9984C22.6091 10.7962 22.4614 10.5847 22.271 10.4588L22.1187 10.3581L19.0221 10.3598C16.5497 10.3612 15.8978 10.3734 15.7878 10.4204Z" fill="white"/>
</svg>
